<?xml version="1.0" encoding="UTF-8"?>
<svg xmlns="http://www.w3.org/2000/svg" height="16px" viewBox="0 0 16 16" width="16px">
    <path d="m 1.050781 0 c -0.59375 0 -1.050781 0.449219 -1.050781 1.039062 v 10.394532 c 0.003906 0.554687 0.453125 1.003906 1.011719 1.007812 l 0.0625 2.558594 h 2.15625 l 0.058593 -2.566406 h 9.421876 l 0.058593 2.566406 h 2.15625 l 0.0625 -2.558594 c 0.558594 -0.003906 1.007813 -0.453125 1.011719 -1.007812 v -10.394532 c 0 -0.589843 -0.457031 -1.039062 -1.050781 -1.039062 z m 0.949219 2 h 12 v 8 h -12 z m 2 10 c 0.550781 0 1 0.449219 1 1 s -0.449219 1 -1 1 s -1 -0.449219 -1 -1 s 0.449219 -1 1 -1 z m 8 0 c 0.550781 0 1 0.449219 1 1 s -0.449219 1 -1 1 s -1 -0.449219 -1 -1 s 0.449219 -1 1 -1 z m 0 0"/>
</svg>