<?xml version="1.0" encoding="UTF-8"?>
<svg xmlns="http://www.w3.org/2000/svg" height="16px" viewBox="0 0 16 16" width="16px">
    <path d="m 6 0 c -3.3125 0 -6 2.6875 -6 6 v 9 c 0 0.550781 0.449219 1 1 1 h 10 c 0.550781 0 1 -0.449219 1 -1 v -6 c 0 -0.265625 -0.105469 -0.519531 -0.292969 -0.707031 l -1.707031 -1.707031 v -0.585938 c 0 -3.3125 -2.6875 -6 -6 -6 z m 0 2 h 2 v 1 c 0 0.550781 0.449219 1 1 1 h 2 c 0.550781 0 1 -0.449219 1 -1 v -1 c 1.191406 0 2 0.808594 2 2 v 3 h -2 c -0.554688 0 -1 0.445312 -1 1 v 3 c 0 0.554688 0.445312 1 1 1 h 2 v 3 h -8 v -9 c 0 -2.246094 1.753906 -4 4 -4 z m 3 6 c 0.550781 0 1 0.449219 1 1 s -0.449219 1 -1 1 s -1 -0.449219 -1 -1 s 0.449219 -1 1 -1 z m 0 0"/>
    <path d="m 14 1 l -3 3 h 2 v 2 h 2 v -2 h 2 z m 0 0"/>
</svg>