<?xml version="1.0" encoding="UTF-8"?>
<svg xmlns="http://www.w3.org/2000/svg" height="16px" viewBox="0 0 16 16" width="16px">
    <path d="m 6.5 1 c -0.550781 0 -1 0.449219 -1 1 c 0 0.085938 0.019531 0.164062 0.039062 0.25 c -0.9375 0.265625 -1.730468 0.839844 -2.28125 1.59375 c -0.183593 -0.074219 -0.367187 -0.144531 -0.570312 -0.144531 c -0.550781 0 -1 0.449219 -1 1 c 0 0.550781 0.449219 1 1 1 c 0.09375 0 0.175781 -0.023438 0.257812 -0.050781 c 0.027344 0.105469 0.050782 0.210937 0.085938 0.3125 l -0.339844 0.394531 c -0.390625 0.390625 -0.390625 1.023438 0 1.414062 l 0.574219 0.578126 c 0.390625 0.390624 1.023437 0.390624 1.414062 0 l 0.394532 -0.34375 c 0.097656 0.039062 0.203124 0.0625 0.304687 0.089843 c -0.019531 0.078125 -0.03125 0.15625 -0.03125 0.242188 c 0 0.550781 0.449219 1 1 1 c 0.296875 0 0.5625 -0.136719 0.75 -0.34375 c 0.1875 0.207031 0.453125 0.34375 0.75 0.34375 c 0.550781 0 1 -0.449219 1 -1 c 0 -0.078126 -0.011719 -0.152344 -0.03125 -0.222657 c 0.105469 -0.027343 0.210938 -0.05078 0.3125 -0.085937 l 0.414062 0.363281 c 0.390626 0.390625 1.023438 0.390625 1.414063 0 l 0.574219 -0.578125 c 0.390625 -0.390625 0.390625 -1.023437 0 -1.414062 l -0.359375 -0.410156 c 0.03125 -0.105469 0.058594 -0.21875 0.085937 -0.328126 c 0.082032 0.019532 0.164063 0.03125 0.257813 0.03125 c 0.550781 0 1 -0.449218 1 -1 c 0 -0.550781 -0.449219 -1 -1 -1 c -0.230469 0 -0.429688 0.085938 -0.601563 0.207032 c -0.546875 -0.734376 -1.324218 -1.300782 -2.242187 -1.558594 c 0.023437 -0.089844 0.042969 -0.179688 0.042969 -0.28125 c 0 -0.550781 -0.449219 -1 -1 -1 c -0.300781 0 -0.5625 0.136719 -0.75 0.34375 c -0.1875 -0.207031 -0.449219 -0.34375 -0.75 -0.34375 z m 0.5 4 c 1.65625 0 3 1.34375 3 3 s -1.34375 3 -3 3 s -3 -1.34375 -3 -3 s 1.34375 -3 3 -3 z m 0 0"/>
    <path d="m 14.464844 9.785156 c -0.066406 -0.03125 -0.128906 -0.0625 -0.195313 -0.089844 c 0.007813 -0.09375 0.03125 -0.191406 0.03125 -0.296874 c 0 -0.441407 -0.359375 -0.800782 -0.800781 -0.800782 c -0.441406 0 -0.796875 0.359375 -0.796875 0.800782 c 0 0.054687 0.007813 0.109374 0.023437 0.15625 c -0.753906 0.242187 -1.320312 0.769531 -1.628906 1.429687 c -0.121094 -0.039063 -0.242187 -0.082031 -0.371094 -0.082031 c -0.441406 0 -0.800781 0.359375 -0.800781 0.800781 c 0 0.441406 0.359375 0.796875 0.800781 0.796875 c 0.023438 0 0.046876 -0.007812 0.074219 -0.007812 c 0.015625 0.238281 0.066407 0.464843 0.140625 0.683593 l -0.257812 0.226563 c -0.3125 0.316406 -0.3125 0.820312 0 1.132812 l 0.425781 0.429688 c 0.3125 0.3125 0.820313 0.3125 1.136719 0 l 0.214844 -0.21875 c 0.207031 0.066406 0.425781 0.117188 0.65625 0.136719 c -0.003907 0.035156 -0.011719 0.066406 -0.011719 0.097656 c 0 0.445312 0.359375 0.800781 0.796875 0.800781 c 0.441406 0 0.800781 -0.355469 0.800781 -0.800781 c 0 -0.09375 -0.015625 -0.175781 -0.03125 -0.257813 c 0.230469 -0.019531 0.449219 -0.0625 0.660156 -0.132812 l 0.234376 0.238281 c 0.3125 0.3125 0.820312 0.3125 1.136718 0 l 0.425782 -0.429688 c 0.3125 -0.3125 0.3125 -0.816406 0 -1.132812 l -0.265626 -0.25 c 0.066407 -0.210938 0.113282 -0.429688 0.125 -0.65625 c 0.019532 0 0.027344 0.003906 0.046876 0.003906 c 0.441406 0 0.796874 -0.359375 0.796874 -0.796875 c 0 -0.441406 -0.355468 -0.800781 -0.796874 -0.800781 c -0.269532 0 -0.5 0.132812 -0.648438 0.332031 c -0.308594 -0.550781 -0.832031 -0.996094 -1.488281 -1.238281 z m -0.964844 2.816406 c 0.960938 0 1.699219 0.736328 1.699219 1.699219 c 0 0.964844 -0.738281 1.699219 -1.699219 1.699219 c -0.964844 0 -1.699219 -0.734375 -1.699219 -1.699219 c 0 -0.960937 0.734375 -1.699219 1.699219 -1.699219 z m 0 0"/>
</svg>