<?xml version="1.0" encoding="UTF-8"?>
<svg xmlns="http://www.w3.org/2000/svg" height="16px" viewBox="0 0 16 16" width="16px">
    <path d="m 8 0 c -0.550781 0 -1 0.449219 -1 1 v 6.5625 l -1.28125 -1.28125 c -0.394531 -0.394531 -1.03125 -0.394531 -1.425781 0 s -0.394531 1.03125 0 1.425781 l 3 3 c 0.183593 0.183594 0.433593 0.292969 0.707031 0.292969 s 0.523438 -0.109375 0.707031 -0.292969 l 3 -3 c 0.394531 -0.394531 0.394531 -1.03125 0 -1.425781 s -1.03125 -0.394531 -1.425781 0 l -1.28125 1.28125 v -6.5625 c 0 -0.550781 -0.449219 -1 -1 -1 z m -5 11 c -0.550781 0 -1 0.449219 -1 1 v 1 c 0 1.644531 1.355469 3 3 3 h 6 c 1.644531 0 3 -1.355469 3 -3 v -1 c 0 -0.550781 -0.449219 -1 -1 -1 s -1 0.449219 -1 1 v 1 c 0 0.570312 -0.429688 1 -1 1 h -6 c -0.570312 0 -1 -0.429688 -1 -1 v -1 c 0 -0.550781 -0.449219 -1 -1 -1 z m 0 0"/>
</svg>